#!OML:ASF X:\für Bonn\!DataBase\2005_08_12_Daniel\c3d\Daniel.ASF
:FULLY-SPECIFIED
:DEGREES
145
root 0.422949 15.7275 -0.602266 58.1871 -86.4528 -71.1078
lowerback 36.8072 -3.18841 6.22632
upperback 3.54189 -2.20526 -0.55887
thorax -14.6285 -1.54734 -2.87176
lowerneck 7.12177 1.63567 -2.53755
upperneck 1.31692 1.90505 -0.76259
head -0.790152 0.928061 0.134078
rclavicle -7.60351e-015 -3.57812e-015
rhumerus 61.943 -0.916421 -104.466
rradius 8.11112
rwrist 66.6698
rhand -18.4437 8.16794
rfingers 7.12502
rthumb 7.84208 -21.6666
lclavicle -7.60351e-015 -3.57812e-015
lhumerus 64.5443 7.71596 110.225
lradius 9.49198
lwrist -87.1661
lhand -16.3533 1.29853
lfingers 7.12502
lthumb 9.85927 31.0477
rfemur -22.9904 -12.6805 12.5299
rtibia 69.7513
rfoot -6.37769 5.97257
rtoes -10.3496
lfemur -25.6445 10.4673 -7.2387
ltibia 70.4369
lfoot -19.1399 -8.30031
ltoes -0.247596
146
root 0.386317 15.8514 -0.601649 59.359 -86.3705 -72.0993
lowerback 36.0735 -3.14922 6.27262
upperback 3.45996 -2.15998 -0.522277
thorax -14.4392 -1.52016 -2.89822
lowerneck 7.16521 1.65278 -2.55179
upperneck 1.52847 1.92505 -0.675969
head -0.732268 0.932764 0.162911
rclavicle 8.24956e-015 -2.18663e-015
rhumerus 61.6107 -0.931117 -104.361
rradius 8.25081
rwrist 66.7309
rhand -18.1887 8.10977
rfingers 7.12502
rthumb 8.08826 -21.7154
lclavicle 8.24956e-015 -2.18663e-015
lhumerus 64.2617 7.73815 110.108
lradius 9.46203
lwrist -87.2056
lhand -16.5348 1.30207
lfingers 7.12502
lthumb 9.68416 31.0595
rfemur -21.7065 -12.3833 12.7985
rtibia 67.6877
rfoot -6.62758 5.80614
rtoes -10.3371
lfemur -24.4171 9.7184 -7.3194
ltibia 68.4793
lfoot -19.3952 -7.8179
ltoes 0.09796
147
root 0.347317 15.9727 -0.601324 60.4932 -86.3093 -73.044
lowerback 35.2536 -3.09249 6.29402
upperback 3.42891 -2.10972 -0.486319
thorax -14.2669 -1.48987 -2.9292
lowerneck 7.24037 1.67053 -2.59896
upperneck 1.7652 1.94159 -0.552705
head -0.672789 0.934549 0.208361
rclavicle -8.69683e-015 6.55989e-015
rhumerus 61.2476 -0.993955 -104.243
rradius 8.34856
rwrist 66.7334
rhand -18.1024 8.1113
rfingers 7.12502
rthumb 8.17155 -21.7107
lclavicle -8.69683e-015 6.55989e-015
lhumerus 63.9425 7.74854 109.99
lradius 9.43146
lwrist -87.218
lhand -16.7038 1.31443
lfingers 7.12502
lthumb 9.52114 31.0793
rfemur -20.4083 -12.0761 13.037
rtibia 65.5936
rfoot -6.95515 5.65613
rtoes -10.4794
lfemur -23.1605 8.95845 -7.42117
ltibia 66.4921
lfoot -19.7269 -7.34551
ltoes 0.330601
148
root 0.307256 16.0868 -0.600587 61.5761 -86.2444 -73.9166
lowerback 34.4775 -3.04541 6.32164
upperback 3.31341 -2.06291 -0.451817
thorax -14.0906 -1.46076 -2.95006
lowerneck 7.3425 1.69884 -2.6518
upperneck 1.99971 1.96971 -0.432603
head -0.618848 0.942003 0.253229
rclavicle -1.63997e-015 -2.08724e-014
rhumerus 60.8402 -1.03353 -104.126
rradius 8.46013
rwrist 66.6739
rhand -18.1429 8.11942
rfingers 7.12502
rthumb 8.13239 -21.7041
lclavicle -1.63997e-015 -2.08724e-014
lhumerus 63.5985 7.7815 109.874
lradius 9.40458
lwrist -87.1378
lhand -16.978 1.28392
lfingers 7.12502
lthumb 9.2566 31.0607
rfemur -19.1284 -11.7876 13.2719
rtibia 63.483
rfoot -7.32452 5.52325
rtoes -10.5388
lfemur -21.9348 8.19599 -7.52822
ltibia 64.5006
lfoot -20.0945 -6.86048
ltoes 0.530749
149
root 0.266993 16.1953 -0.600425 62.5943 -86.1803 -74.747
lowerback 33.7265 -3.00162 6.34169
upperback 3.20293 -2.02575 -0.432617
thorax -13.9139 -1.43611 -2.97834
lowerneck 7.42523 1.72175 -2.6362
upperneck 2.23298 1.9963 -0.338552
head -0.560968 0.949517 0.278907
rclavicle 1.2921e-015 4.57205e-015
rhumerus 60.4414 -1.08573 -104.035
rradius 8.55463
rwrist 66.5559
rhand -18.281 8.17975
rfingers 7.12502
rthumb 7.99912 -21.6489
lclavicle 1.2921e-015 4.57205e-015
lhumerus 63.2917 7.80938 109.724
lradius 9.33719
lwrist -86.9912
lhand -17.222 1.26309
lfingers 7.12502
lthumb 9.02115 31.0502
rfemur -17.807 -11.5112 13.4826
rtibia 61.3456
rfoot -7.69528 5.45228
rtoes -10.4052
lfemur -20.68 7.41023 -7.63709
ltibia 62.5038
lfoot -20.4372 -6.37243
ltoes 0.85705
150
root 0.227072 16.2992 -0.600683 63.8705 -86.1229 -75.8227
lowerback 32.9824 -2.94231 6.33522
upperback 3.06593 -1.97356 -0.395437
thorax -13.7625 -1.40351 -2.97848
lowerneck 7.60682 1.7474 -2.63316
upperneck 2.41804 2.02066 -0.271521
head -0.534571 0.95655 0.297626
rclavicle -1.55549e-014 7.95139e-016
rhumerus 60.0024 -1.11929 -103.93
rradius 8.61445
rwrist 66.4376
rhand -18.5614 8.27013
rfingers 7.12502
rthumb 7.72849 -21.5686
lclavicle -1.55549e-014 7.95139e-016
lhumerus 62.953 7.86965 109.586
lradius 9.24233
lwrist -86.7548
lhand -17.5084 1.23028
lfingers 7.12502
lthumb 8.74474 31.0291
rfemur -16.4941 -11.2067 13.7034
rtibia 59.186
rfoot -8.11412 5.36766
rtoes -10.4096
lfemur -19.4455 6.59421 -7.75086
ltibia 60.5247
lfoot -20.8103 -5.83665
ltoes 1.03974
